<?xml version="1.0" standalone="no"?>
<!DOCTYPE svg PUBLIC "-//W3C//DTD SVG 20010904//EN"
 "http://www.w3.org/TR/2001/REC-SVG-20010904/DTD/svg10.dtd">
<svg version="1.0" xmlns="http://www.w3.org/2000/svg"
 width="32.000000pt" height="32.000000pt" viewBox="0 0 32.000000 32.000000"
 preserveAspectRatio="xMidYMid meet">
<g transform="translate(0.000000,32.000000) scale(0.100000,-0.100000)"
fill="#0f766e" stroke="none">
<path d="M102 284 c-69 -35 -99 -120 -67 -188 62 -131 253 -101 272 43 15 108
-108 194 -205 145z m127 -19 c32 -16 61 -69 61 -110 0 -61 -54 -125 -105 -125
-51 0 -105 64 -105 125 0 40 29 94 59 110 34 18 55 18 90 0z m-162 -60 c0 -8
-7 -15 -15 -15 -12 0 -12 3 -2 15 7 8 13 15 15 15 1 0 2 -7 2 -15z m-13 -75
c-6 -6 -10 -2 -11 12 -2 16 1 18 10 9 7 -7 8 -14 1 -21z"/>
<path d="M230 202 c0 -6 5 -14 10 -17 6 -3 10 -17 10 -30 0 -13 -4 -27 -10
-30 -5 -3 -10 -11 -10 -17 0 -6 9 -3 20 7 11 10 20 28 20 40 0 12 -9 30 -20
40 -11 10 -20 13 -20 7z"/>
</g>
</svg>
