<svg xmlns="http://www.w3.org/2000/svg" shape-rendering="geometricPrecision" text-rendering="geometricPrecision" image-rendering="optimizeQuality" fill-rule="evenodd" clip-rule="evenodd" viewBox="0 0 512 468.554"><path fill="#fff" fill-rule="nonzero" d="M483.381 151.575H28.619v219.35c0 37.906 31.106 69.009 69.013 69.009h316.736c37.884 0 69.013-31.125 69.013-69.009v-219.35z"/><path fill="#FD5" d="M353.177 122.962l36.214-92.199c.286-.725.621-1.441.999-2.144H284.447l-37.054 94.343h105.784zm62.346-94.33l-37.051 94.33h104.909v-25.33c0-18.947-7.773-36.205-20.295-48.724-12.255-12.258-29.061-19.967-47.563-20.276zM88.36 122.962l36.214-92.199c.287-.725.621-1.441.999-2.144H97.632c-18.963 0-36.218 7.77-48.731 20.283-12.512 12.512-20.282 29.767-20.282 48.73v25.33H88.36zm62.353-94.343l-37.058 94.343h108.681l36.129-91.983c.315-.798.687-1.587 1.116-2.36H150.713z"/><path fill="#212121" fill-rule="nonzero" d="M97.632 0h316.736C468.073 0 512 43.928 512 97.632v273.293c0 53.682-43.95 97.629-97.632 97.629H97.632C43.927 468.554 0 424.629 0 370.925V97.632C0 43.902 43.902 0 97.632 0zm255.545 122.962l36.214-92.199c.286-.725.621-1.441.999-2.144H284.447l-37.054 94.343h105.784zm62.346-94.33l-37.051 94.33h104.909v-25.33c0-37.461-30.413-68.377-67.858-69zM88.36 122.962l36.214-92.199c.287-.725.621-1.441.999-2.144H97.632c-37.929 0-69.013 31.084-69.013 69.013v25.33H88.36zm62.353-94.343l-37.058 94.343h108.681l36.129-91.983c.315-.798.687-1.587 1.116-2.36H150.713zm332.668 122.956H28.619v219.35c0 37.906 31.106 69.009 69.013 69.009h316.736c37.884 0 69.013-31.125 69.013-69.009v-219.35z"/><path fill="#212121" fill-rule="nonzero" d="M256 186.925c57.441 0 104.021 46.572 104.021 104.022S313.441 394.959 256 394.959c-57.45 0-104.022-46.562-104.022-104.012S198.55 186.925 256 186.925zm38.66 111.733c7.676-4.953 7.657-10.479 0-14.87l-52.841-37.308c-6.26-3.928-12.784-1.615-12.611 6.551l.245 75.115c.535 8.864 5.597 11.286 13.047 7.195l52.16-36.683z"/></svg>